<?xml version="1.0" standalone="no"?>
<!DOCTYPE svg PUBLIC "-//W3C//DTD SVG 20010904//EN"
 "http://www.w3.org/TR/2001/REC-SVG-20010904/DTD/svg10.dtd">
<svg version="1.0" xmlns="http://www.w3.org/2000/svg"
 width="349.000000pt" height="128.000000pt" viewBox="0 0 349.000000 128.000000"
 preserveAspectRatio="xMidYMid meet">

<g transform="translate(0.000000,128.000000) scale(0.100000,-0.100000)"
fill="#000000" stroke="none">
<path d="M2535 1194 c-115 -12 -243 -37 -352 -69 -117 -34 -283 -100 -326
-130 -20 -14 -20 -14 -1 -21 79 -29 132 -51 215 -91 l97 -45 133 36 c183 49
261 59 414 54 105 -4 145 -10 212 -32 140 -45 243 -131 260 -217 5 -29 5 -30
-23 -23 -16 4 -89 31 -163 61 -128 51 -137 53 -227 53 l-93 0 -7 -35 c-36
-193 230 -403 463 -365 172 28 299 209 273 390 -27 194 -236 361 -520 414 -82
16 -285 27 -355 20z"/>
<path d="M1050 1024 c-452 -41 -784 -200 -910 -434 -33 -62 -35 -70 -35 -165
0 -95 2 -103 34 -163 39 -72 88 -120 163 -159 47 -25 64 -28 148 -28 92 0 98
1 169 40 192 102 284 258 239 406 -10 34 -15 39 -42 39 -79 -1 -159 -31 -275
-104 -177 -112 -201 -122 -201 -86 0 60 66 152 155 215 118 84 232 129 408
162 111 21 423 23 537 5 300 -50 573 -139 965 -317 313 -142 388 -175 391
-172 6 5 -216 220 -306 297 -268 229 -629 390 -998 445 -99 15 -361 26 -442
19z"/>
<path d="M1305 581 c-149 -135 -341 -328 -333 -336 4 -4 686 323 753 362 11 6
17 15 13 19 -13 13 -232 64 -273 64 -37 0 -49 -9 -160 -109z"/>
</g>
</svg>
